<svg xmlns="http://www.w3.org/2000/svg" viewBox="0 0 900 620" role="img" aria-label="Perforated industrial metal panel">
  <defs><linearGradient id="g" x1="0" x2="1" y1="0" y2="1"><stop stop-color="#2d3b47"/><stop offset=".55" stop-color="#121b24"/><stop offset="1" stop-color="#44505a"/></linearGradient></defs>
  <rect width="900" height="620" fill="#071018"/>
  <path d="M70 420 690 140l150 120-620 280z" fill="url(#g)" stroke="#6d7d88" stroke-width="3"/>
  <g fill="#071018" opacity=".85">
    <circle cx="210" cy="395" r="14"/><circle cx="275" cy="366" r="14"/><circle cx="340" cy="337" r="14"/><circle cx="405" cy="308" r="14"/><circle cx="470" cy="279" r="14"/><circle cx="535" cy="250" r="14"/><circle cx="600" cy="221" r="14"/>
    <circle cx="250" cy="430" r="14"/><circle cx="315" cy="401" r="14"/><circle cx="380" cy="372" r="14"/><circle cx="445" cy="343" r="14"/><circle cx="510" cy="314" r="14"/><circle cx="575" cy="285" r="14"/><circle cx="640" cy="256" r="14"/>
  </g>
  <path d="M116 414 696 154" stroke="#00d26a" stroke-width="4" opacity=".55"/>
  <path d="M720 180 822 258" stroke="#ffb020" stroke-width="5" opacity=".8"/>
</svg>
